<?xml version="1.0" encoding="utf-8"?>
<!-- Generator: Adobe Illustrator 16.0.0, SVG Export Plug-In . SVG Version: 6.00 Build 0)  -->
<!DOCTYPE svg PUBLIC "-//W3C//DTD SVG 1.1//EN" "http://www.w3.org/Graphics/SVG/1.1/DTD/svg11.dtd">
<svg version="1.1" id="Layer_1" xmlns="http://www.w3.org/2000/svg" xmlns:xlink="http://www.w3.org/1999/xlink" x="0px" y="0px"
	 width="99.212px" height="79.676px" viewBox="0 0 99.212 79.676" enable-background="new 0 0 99.212 79.676" xml:space="preserve">
<path fill-rule="evenodd" clip-rule="evenodd" fill="#FFFFFF" d="M16.529,38.856c0,0.458,0.083,0.512,0.25,0.512
	c0.29,0,0.872-0.539,1.107-0.802c0.733-0.816,1.536-1.675,1.979-2.326c0.124-0.18,0.179-0.304,0.179-0.359
	c0-0.057-0.055-0.153-0.235-0.18l-0.483-0.083c-0.153-0.097-0.125-0.429,0.055-0.484c0.706,0.028,1.218,0.042,1.715,0.042
	c0.512,0,1.121-0.014,1.674-0.042c0.166,0.055,0.18,0.374,0.069,0.484c-0.484,0.055-0.899,0.125-1.19,0.249
	c-0.554,0.222-1.148,0.747-2.048,1.771l-0.636,0.721c-0.139,0.152-0.18,0.262-0.18,0.317c0,0.069,0.083,0.235,0.498,0.859
	c0.691,1.038,1.507,2.366,2.448,3.612c0.374,0.498,0.638,0.594,1.023,0.648l0.444,0.07c0.083,0.125,0.083,0.415-0.041,0.484
	c-0.692-0.027-1.356-0.042-1.994-0.042c-0.705,0-1.396,0.015-2.172,0.042c-0.179-0.055-0.179-0.401-0.027-0.484l0.345-0.083
	c0.153-0.042,0.236-0.084,0.236-0.138c0-0.056-0.027-0.152-0.111-0.277c-0.083-0.125-0.664-1.023-0.802-1.231l-0.733-1.121
	c-0.499-0.762-0.734-1.093-1.038-1.093c-0.318,0-0.333,0.193-0.333,0.94v1.453c0,1.287,0.083,1.411,0.706,1.494l0.387,0.056
	c0.111,0.098,0.111,0.4,0,0.484c-0.734-0.027-1.425-0.042-2.09-0.042c-0.621,0-1.341,0.015-2.074,0.042
	c-0.111-0.084-0.111-0.401,0-0.484l0.387-0.056c0.623-0.083,0.706-0.207,0.706-1.494v-5.147c0-1.287-0.083-1.412-0.706-1.495
	l-0.387-0.055c-0.153-0.083-0.153-0.402,0-0.484c0.691,0.028,1.383,0.042,2.074,0.042c0.665,0,1.356-0.014,2.09-0.042
	c0.125,0.083,0.125,0.401,0,0.484l-0.387,0.055c-0.623,0.083-0.706,0.208-0.706,1.495V38.856z"/>
<path fill-rule="evenodd" clip-rule="evenodd" fill="#FFFFFF" d="M27.282,40.448c0.318,0,0.388-0.041,0.277-0.4l-0.361-1.121
	c-0.193-0.596-0.442-1.343-0.566-1.633c-0.111,0.318-0.387,1.066-0.595,1.702l-0.346,1.038c-0.125,0.374-0.056,0.415,0.291,0.415
	H27.282L27.282,40.448z M25.705,41.18c-0.333,0-0.374,0.015-0.457,0.277l-0.54,1.605c-0.083,0.277-0.097,0.388-0.097,0.498
	c0,0.084,0.179,0.166,0.567,0.234l0.415,0.07c0.083,0.098,0.111,0.415-0.027,0.484c-0.485-0.027-0.982-0.027-1.564-0.042
	c-0.47,0-0.789,0.042-1.424,0.042c-0.153-0.084-0.139-0.375-0.042-0.484l0.373-0.041c0.333-0.042,0.609-0.152,0.844-0.692
	c0.235-0.554,0.498-1.218,0.872-2.214l1.26-3.376c0.318-0.873,0.553-1.356,0.512-1.758c0.665-0.152,1.176-0.83,1.204-0.83
	c0.179,0,0.262,0.069,0.317,0.276c0.111,0.401,0.277,0.914,0.624,1.896l1.881,5.425c0.291,0.83,0.415,1.147,0.927,1.231l0.526,0.083
	c0.083,0.068,0.111,0.4-0.014,0.484c-0.664-0.027-1.411-0.042-2.131-0.042c-0.692,0-1.231,0.015-1.868,0.042
	c-0.152-0.084-0.18-0.375-0.027-0.484l0.443-0.07c0.317-0.055,0.374-0.15,0.374-0.234c0-0.098-0.098-0.429-0.264-0.941l-0.374-1.189
	c-0.069-0.221-0.179-0.25-0.665-0.25H25.705z"/>
<path fill-rule="evenodd" clip-rule="evenodd" fill="#FFFFFF" d="M34.991,41.97c0,1.078,0.138,1.757,1.218,1.757
	c1.024,0,1.563-0.788,1.563-1.909c0-1.204-0.691-2.047-2.02-2.047c-0.761,0-0.761,0.012-0.761,0.566V41.97L34.991,41.97z
	 M34.991,38.773c0,0.36,0.014,0.388,0.732,0.388c1.191,0,1.633-0.762,1.633-1.591c0-1.204-0.747-1.799-1.701-1.799
	c-0.65,0-0.664,0.111-0.664,0.72V38.773L34.991,38.773z M33.081,37.432c0-1.397-0.028-1.536-0.609-1.619l-0.374-0.055
	c-0.124-0.07-0.152-0.485,0.056-0.499c1.051-0.069,2.061-0.125,3.445-0.125c1.328,0,2.213,0.152,2.822,0.511
	c0.595,0.36,0.956,0.942,0.956,1.758c0,1.162-0.983,1.619-1.413,1.729c-0.139,0.028-0.277,0.083-0.277,0.152
	c0,0.042,0.069,0.083,0.195,0.111c1.093,0.234,2.02,0.955,2.033,2.295c0.014,1.274-0.747,2.021-1.619,2.326
	c-0.871,0.305-1.909,0.346-2.753,0.346c-0.499,0-1.024-0.056-1.424-0.056c-0.679,0-1.356,0.015-2.146,0.042
	c-0.111-0.084-0.111-0.442,0-0.484l0.401-0.082c0.624-0.126,0.706-0.223,0.706-1.468V37.432z"/>
<path fill-rule="evenodd" clip-rule="evenodd" fill="#FFFFFF" d="M44.705,40.448c0.319,0,0.389-0.041,0.277-0.4l-0.36-1.121
	c-0.193-0.596-0.442-1.343-0.567-1.633c-0.112,0.318-0.388,1.066-0.594,1.702l-0.347,1.038c-0.124,0.374-0.055,0.415,0.291,0.415
	H44.705L44.705,40.448z M43.128,41.18c-0.333,0-0.374,0.015-0.457,0.277l-0.541,1.605c-0.083,0.277-0.097,0.388-0.097,0.498
	c0,0.084,0.18,0.166,0.567,0.234l0.415,0.07c0.083,0.098,0.111,0.415-0.027,0.484c-0.485-0.027-0.982-0.027-1.564-0.042
	c-0.47,0-0.79,0.042-1.425,0.042c-0.153-0.084-0.138-0.375-0.042-0.484l0.374-0.041c0.332-0.042,0.609-0.152,0.844-0.692
	c0.235-0.554,0.498-1.218,0.871-2.214l1.259-3.376c0.318-0.873,0.554-1.356,0.512-1.758c0.666-0.152,1.177-0.83,1.205-0.83
	c0.179,0,0.263,0.069,0.318,0.276c0.111,0.401,0.277,0.914,0.623,1.896l1.882,5.425c0.291,0.83,0.416,1.147,0.927,1.231l0.526,0.083
	c0.083,0.068,0.11,0.4-0.014,0.484c-0.664-0.027-1.411-0.042-2.131-0.042c-0.692,0-1.232,0.015-1.868,0.042
	c-0.152-0.084-0.18-0.375-0.028-0.484l0.444-0.07c0.317-0.055,0.374-0.15,0.374-0.234c0-0.098-0.098-0.429-0.265-0.941l-0.374-1.189
	c-0.068-0.221-0.179-0.25-0.664-0.25H43.128z"/>
<path fill-rule="evenodd" clip-rule="evenodd" fill="#FFFFFF" d="M52.4,39.175c0,0.484,0.041,0.525,0.857,0.525
	c0.498,0,0.788-0.125,1.052-0.388c0.235-0.235,0.499-0.678,0.499-1.494c0-1.246-0.734-2.048-1.813-2.048
	c-0.567,0-0.595,0.042-0.595,0.706V39.175L52.4,39.175z M50.503,37.417c0-1.383-0.027-1.536-0.609-1.619l-0.374-0.056
	c-0.138-0.069-0.138-0.415,0.028-0.484c1.036-0.069,2.116-0.125,3.431-0.125c1.178,0,2.186,0.18,2.713,0.499
	c0.803,0.471,1.218,1.163,1.218,2.048c0,1.232-0.831,1.758-1.468,2.076c-0.139,0.069-0.139,0.152-0.068,0.305
	c0.912,1.854,1.48,2.891,2.145,3.459c0.359,0.29,0.72,0.373,0.928,0.387c0.124,0.068,0.124,0.277,0.055,0.36
	c-0.222,0.097-0.664,0.124-1.094,0.124c-1.272,0-2.074-0.457-2.685-1.452c-0.442-0.734-0.761-1.411-1.078-2.145
	c-0.167-0.374-0.388-0.485-0.733-0.485c-0.484,0-0.512,0.028-0.512,0.305v1.701c0,1.274,0.083,1.371,0.705,1.481l0.373,0.069
	c0.098,0.068,0.098,0.401,0,0.482c-0.732-0.025-1.369-0.04-2.033-0.04c-0.691,0-1.301,0.015-2.021,0.04
	c-0.11-0.081-0.11-0.414,0-0.482l0.374-0.069c0.623-0.11,0.706-0.207,0.706-1.481V37.417z"/>
<path fill-rule="evenodd" clip-rule="evenodd" fill="#FFFFFF" d="M61.671,41.803c0,0.763,0.027,1.26,0.276,1.551
	c0.249,0.276,0.65,0.4,1.147,0.4c2.395,0,3.211-2.131,3.211-4.012c0-2.491-1.314-3.971-3.818-3.971c-0.373,0-0.637,0.069-0.72,0.18
	c-0.082,0.11-0.097,0.374-0.097,0.802V41.803L61.671,41.803z M59.693,37.417c0-1.315-0.028-1.577-0.664-1.646l-0.264-0.028
	c-0.139-0.069-0.139-0.471,0.028-0.484c1.163-0.069,2.241-0.125,3.708-0.125c1.135,0,2.27,0.111,3.224,0.456
	c1.813,0.65,2.81,2.283,2.81,4.013c0,1.854-0.885,3.348-2.477,4.137c-0.941,0.471-2.076,0.651-3.501,0.651
	c-0.651,0-1.343-0.084-1.841-0.084c-0.663,0-1.369,0.015-2.158,0.042c-0.111-0.084-0.111-0.416,0-0.484l0.428-0.07
	c0.623-0.097,0.707-0.206,0.707-1.479V37.417z"/>
<path fill-rule="evenodd" clip-rule="evenodd" fill="#FFFFFF" d="M73.503,40.448c0.318,0,0.389-0.041,0.277-0.4l-0.36-1.121
	c-0.193-0.596-0.442-1.343-0.567-1.633c-0.111,0.318-0.387,1.066-0.594,1.702l-0.348,1.038c-0.123,0.374-0.055,0.415,0.291,0.415
	H73.503L73.503,40.448z M71.926,41.18c-0.333,0-0.374,0.015-0.456,0.277l-0.541,1.605c-0.082,0.277-0.097,0.388-0.097,0.498
	c0,0.084,0.18,0.166,0.567,0.234l0.415,0.07c0.083,0.098,0.111,0.415-0.026,0.484c-0.485-0.027-0.982-0.027-1.564-0.042
	c-0.471,0-0.789,0.042-1.426,0.042c-0.152-0.084-0.138-0.375-0.041-0.484l0.374-0.041c0.332-0.042,0.608-0.152,0.845-0.692
	c0.234-0.554,0.497-1.218,0.871-2.214l1.259-3.376c0.317-0.873,0.554-1.356,0.512-1.758c0.665-0.152,1.177-0.83,1.204-0.83
	c0.18,0,0.263,0.069,0.318,0.276c0.11,0.401,0.277,0.914,0.623,1.896l1.882,5.425c0.29,0.83,0.415,1.147,0.927,1.231l0.525,0.083
	c0.084,0.068,0.111,0.4-0.014,0.484c-0.664-0.027-1.411-0.042-2.131-0.042c-0.692,0-1.231,0.015-1.868,0.042
	c-0.151-0.084-0.18-0.375-0.027-0.484l0.443-0.07c0.317-0.055,0.374-0.15,0.374-0.234c0-0.098-0.098-0.429-0.265-0.941l-0.374-1.189
	c-0.068-0.221-0.179-0.25-0.663-0.25H71.926z"/>
<path fill-rule="evenodd" clip-rule="evenodd" fill="#FFFFFF" d="M81.945,42.316c0,1.287,0.084,1.397,0.705,1.479l0.555,0.07
	c0.096,0.083,0.096,0.4,0,0.484c-0.9-0.027-1.578-0.042-2.242-0.042c-0.663,0-1.355,0.015-2.172,0.042
	c-0.112-0.084-0.112-0.401,0-0.484l0.471-0.07c0.622-0.097,0.705-0.192,0.705-1.479v-0.692c0-0.691-0.014-0.913-0.373-1.646
	l-1.647-3.404c-0.276-0.567-0.4-0.788-0.886-0.871l-0.471-0.083c-0.123-0.11-0.11-0.443,0.056-0.484
	c0.624,0.028,1.136,0.042,1.951,0.042c0.845,0,1.55-0.014,2.021-0.042c0.124,0.055,0.152,0.374,0.027,0.484l-0.471,0.11
	c-0.248,0.056-0.332,0.112-0.332,0.126c0,0.109,0.07,0.318,0.36,0.968l0.65,1.479c0.206,0.457,0.526,1.094,0.692,1.44
	c0.4-0.678,0.829-1.578,1.189-2.284c0.498-0.982,0.664-1.398,0.664-1.563c0-0.083-0.221-0.167-0.554-0.222l-0.263-0.055
	c-0.111-0.07-0.125-0.415,0.014-0.484c0.553,0.028,1.053,0.042,1.549,0.042c0.527,0,0.955-0.014,1.357-0.042
	c0.166,0.055,0.166,0.388,0.055,0.484l-0.359,0.068c-0.249,0.042-0.566,0.138-0.72,0.333c-0.208,0.263-0.54,0.761-1.203,1.965
	l-0.872,1.577c-0.36,0.65-0.457,0.997-0.457,1.786V42.316z"/>
<path fill-rule="evenodd" clip-rule="evenodd" fill="#FFFFFF" d="M4.038,4.515c0.13,0.482,0.333,0.994,0.614,1.479
	C4.93,6.483,5.284,6.944,5.695,7.351C6.104,7.758,6.566,8.113,7.054,8.39c0.488,0.28,0.999,0.484,1.48,0.614
	c0.242,0.065,0.473,0.114,0.688,0.146c0.217,0.033,0.413,0.054,0.582,0.063c0.084,0.005,0.161,0.008,0.231,0.008
	c0.067,0.001,0.126,0,0.176-0.002c0.048,0,0.089-0.004,0.115-0.005l0.04-0.001c0,0,0-0.014,0.002-0.039
	c0.001-0.027,0.005-0.067,0.006-0.117c0-0.048,0.001-0.109,0-0.177c0-0.07-0.003-0.146-0.009-0.229
	c-0.009-0.17-0.029-0.367-0.063-0.583c-0.032-0.216-0.08-0.449-0.146-0.688C10.026,6.898,9.824,6.387,9.545,5.9
	c-0.278-0.488-0.633-0.95-1.04-1.36C8.099,4.131,7.637,3.776,7.149,3.497c-0.486-0.28-0.998-0.483-1.48-0.613
	c-0.242-0.065-0.474-0.114-0.69-0.146C4.764,2.705,4.566,2.685,4.396,2.677C4.312,2.672,4.234,2.669,4.165,2.669
	c-0.066-0.002-0.128,0-0.177,0.001c-0.048,0-0.089,0.004-0.115,0.006c-0.027,0.001-0.04,0.002-0.04,0.002s-0.001,0.014-0.002,0.04
	C3.829,2.745,3.825,2.786,3.825,2.834c-0.002,0.05-0.004,0.11-0.002,0.177c0,0.07,0.004,0.147,0.009,0.231
	C3.839,3.413,3.86,3.609,3.893,3.825C3.923,4.042,3.974,4.273,4.038,4.515z"/>
<path fill-rule="evenodd" clip-rule="evenodd" fill="#FFFFFF" d="M87.279,9.212l0.04,0.002c0.024,0.001,0.066,0.005,0.114,0.005
	c0.049,0.002,0.108,0.003,0.176,0.001c0.07,0,0.146-0.003,0.23-0.009c0.17-0.009,0.367-0.029,0.582-0.063
	c0.217-0.031,0.447-0.081,0.689-0.146c0.481-0.13,0.992-0.333,1.479-0.614c0.488-0.276,0.95-0.631,1.359-1.038
	c0.411-0.406,0.765-0.868,1.044-1.356c0.279-0.487,0.482-0.998,0.613-1.481c0.064-0.241,0.114-0.472,0.146-0.689
	c0.032-0.217,0.054-0.413,0.061-0.584c0.005-0.083,0.009-0.16,0.009-0.23c0.002-0.066,0-0.127-0.002-0.177
	c0-0.048-0.004-0.088-0.006-0.116c-0.001-0.026-0.002-0.039-0.002-0.039s-0.013-0.001-0.039-0.002c-0.027,0-0.067-0.005-0.116-0.005
	c-0.05-0.002-0.11-0.003-0.178-0.002c-0.069,0-0.146,0.003-0.231,0.008c-0.168,0.007-0.365,0.028-0.582,0.062
	c-0.216,0.032-0.449,0.08-0.689,0.146c-0.482,0.129-0.994,0.333-1.48,0.612c-0.487,0.279-0.949,0.635-1.357,1.044
	C88.732,4.95,88.378,5.412,88.1,5.9c-0.279,0.487-0.481,0.998-0.613,1.48c-0.065,0.241-0.114,0.472-0.146,0.69
	c-0.033,0.214-0.053,0.412-0.062,0.582c-0.007,0.083-0.01,0.16-0.01,0.23c-0.002,0.067,0,0.127,0,0.176
	c0.002,0.049,0.005,0.09,0.006,0.116C87.277,9.199,87.279,9.212,87.279,9.212z"/>
<path fill-rule="evenodd" clip-rule="evenodd" fill="#FFFFFF" d="M10.434,69.379l-0.041-0.002c-0.025-0.001-0.067-0.005-0.114-0.005
	c-0.049-0.003-0.109-0.003-0.176-0.002c-0.07,0-0.146,0.003-0.23,0.009c-0.169,0.01-0.367,0.029-0.582,0.063
	c-0.217,0.032-0.447,0.082-0.689,0.146c-0.481,0.131-0.993,0.334-1.479,0.615c-0.489,0.275-0.951,0.631-1.36,1.037
	c-0.411,0.407-0.765,0.869-1.043,1.355c-0.279,0.488-0.483,0.999-0.613,1.481c-0.065,0.241-0.114,0.472-0.146,0.689
	c-0.032,0.217-0.054,0.413-0.061,0.583c-0.005,0.084-0.009,0.161-0.009,0.23c-0.001,0.067,0,0.127,0.003,0.178
	c0,0.049,0.004,0.088,0.005,0.116C3.898,75.901,3.9,75.914,3.9,75.914s0.012,0.001,0.04,0.003c0.026,0,0.066,0.005,0.115,0.005
	c0.05,0.001,0.111,0.004,0.178,0.001c0.069,0,0.146-0.002,0.231-0.008c0.169-0.007,0.366-0.027,0.583-0.062
	c0.215-0.031,0.449-0.079,0.689-0.146c0.482-0.129,0.994-0.333,1.48-0.612c0.487-0.278,0.949-0.634,1.356-1.044
	c0.407-0.408,0.761-0.871,1.039-1.359c0.279-0.486,0.482-0.998,0.613-1.479c0.065-0.241,0.115-0.472,0.146-0.689
	c0.033-0.215,0.053-0.412,0.063-0.582c0.006-0.083,0.009-0.16,0.009-0.229c0.002-0.068,0-0.128,0-0.178
	c-0.001-0.049-0.005-0.089-0.006-0.115C10.435,69.393,10.434,69.379,10.434,69.379z"/>
<path fill-rule="evenodd" clip-rule="evenodd" fill="#FFFFFF" d="M76.928,63.909c-3.056,2.549-6.178,4.161-9.038,5.18
	c4.41-3.564,6.215-8.985,6.705-10.75c5.248-0.693,8.893-3.504,11.279-6.268c-1.002,2.203-2.373,4.5-4.259,6.761
	c-0.938,1.124-1.713,2.241-2.341,3.345C78.498,62.68,77.714,63.252,76.928,63.909L76.928,63.909z M53.688,70.354
	c0.022,0.006,1.849,0.425,4.688,0.412v-0.023c11.832,0,14.744-13.183,14.771-13.316l0.123-0.582l0.592-0.061
	c8.94-0.9,13.084-8.799,14.018-10.859c0.22-1.061,0.365-2.053,0.455-2.943c0.035-0.357,0.063-0.701,0.086-1.038
	c0.075-1.233,0.131-3.483-0.152-6.331c-0.09-0.891-0.235-1.884-0.455-2.944c-0.934-2.061-5.078-9.958-14.018-10.86l-0.59-0.059
	l-0.125-0.582C72.967,20.623,70.118,7.85,58.31,7.85V7.826c-2.84-0.012-4.667,0.406-4.689,0.412l-0.479,0.115l-4.319-4.32
	l-4.321,4.32l-0.479-0.115c-0.022-0.005-1.849-0.424-4.689-0.412V7.85c-11.832,0-14.744,13.182-14.772,13.316l-0.123,0.583
	l-0.592,0.059c-8.94,0.901-13.083,8.799-14.017,10.86c-0.219,1.061-0.366,2.054-0.454,2.944c-0.042,0.412-0.072,0.808-0.097,1.197
	c-0.069,1.263-0.108,3.445,0.164,6.172c0.088,0.891,0.235,1.883,0.454,2.943c0.934,2.061,5.078,9.959,14.017,10.859l0.591,0.061
	l0.124,0.582c0.115,0.543,2.964,13.316,14.772,13.316v0.023c2.841,0.013,4.667-0.406,4.689-0.412l0.479-0.114l4.321,4.32l4.318-4.32
	L53.688,70.354L53.688,70.354z M18.503,62.176c-0.628-1.105-1.403-2.221-2.341-3.345c-1.886-2.261-3.257-4.558-4.259-6.761
	c2.387,2.764,6.031,5.574,11.28,6.268c0.49,1.765,2.294,7.186,6.705,10.75c-2.86-1.019-5.982-2.631-9.038-5.18
	C20.063,63.252,19.282,62.68,18.503,62.176L18.503,62.176z M16.096,19.761c0.938-1.124,1.713-2.24,2.341-3.345
	c0.778-0.504,1.56-1.077,2.346-1.732c3.056-2.55,6.178-4.162,9.038-5.18c-4.411,3.564-6.215,8.984-6.705,10.75
	c-5.248,0.694-8.893,3.502-11.279,6.267C12.838,24.318,14.209,22.022,16.096,19.761L16.096,19.761z M79.208,16.416
	c0.628,1.105,1.403,2.221,2.341,3.345c1.887,2.261,3.258,4.557,4.26,6.76c-2.387-2.765-6.031-5.573-11.279-6.267
	c-0.49-1.765-2.295-7.186-6.705-10.75c2.859,1.018,5.981,2.63,9.038,5.18C77.648,15.339,78.43,15.912,79.208,16.416L79.208,16.416z
	 M89.134,62.047c1.008,0.557,1.586,1.461,1.473,2.303c-0.125,0.93-1.048,1.67-2.535,2.028l0.412,1.708
	c2.23-0.539,3.638-1.816,3.864-3.502c0.21-1.565-0.718-3.165-2.364-4.074c-1.491-0.824-3.452-1.037-5.521-0.603
	c-0.631,0.133-1.268,0.324-1.91,0.568c0.135-0.173,0.266-0.345,0.412-0.52c1.41-1.691,2.545-3.401,3.469-5.085
	c0.049,0.18,0.112,0.356,0.188,0.527c0.148,0.338,0.34,0.656,0.568,0.936c0.225,0.28,0.484,0.521,0.742,0.709
	c0.259,0.191,0.514,0.332,0.715,0.421c0.098,0.046,0.188,0.076,0.242,0.099c0.028,0.012,0.055,0.02,0.07,0.023
	c0.017,0.005,0.025,0.008,0.025,0.008s0.004-0.008,0.011-0.023c0.007-0.015,0.021-0.038,0.03-0.066
	c0.021-0.057,0.063-0.144,0.096-0.246c0.07-0.206,0.143-0.49,0.182-0.808c0.037-0.319,0.039-0.672-0.01-1.028
	c-0.049-0.355-0.15-0.715-0.297-1.054c-0.145-0.339-0.339-0.658-0.564-0.938c-0.225-0.28-0.483-0.521-0.742-0.71
	c-0.048-0.035-0.094-0.059-0.14-0.091c1.6-3.575,2.278-6.905,2.534-9.476c0.197-1.985,0.173-3.688,0.081-5.016
	c-0.01-0.829-0.052-1.73-0.147-2.702c-0.256-2.57-0.936-5.901-2.535-9.476c0.047-0.031,0.092-0.056,0.141-0.091
	c0.258-0.19,0.518-0.429,0.742-0.71c0.226-0.278,0.418-0.598,0.564-0.937c0.146-0.34,0.248-0.698,0.296-1.055
	c0.05-0.355,0.048-0.708,0.011-1.028c-0.039-0.317-0.111-0.602-0.183-0.809c-0.032-0.102-0.073-0.189-0.095-0.245
	c-0.01-0.029-0.023-0.052-0.03-0.068c-0.007-0.015-0.011-0.022-0.011-0.022s-0.009,0.003-0.025,0.008
	c-0.016,0.005-0.042,0.012-0.07,0.024c-0.055,0.021-0.146,0.053-0.242,0.099c-0.201,0.089-0.457,0.229-0.716,0.419
	c-0.258,0.189-0.517,0.429-0.743,0.709c-0.227,0.279-0.419,0.597-0.567,0.936c-0.075,0.172-0.138,0.348-0.187,0.526
	c-0.924-1.682-2.059-3.393-3.469-5.084c-0.146-0.176-0.277-0.347-0.413-0.519c0.644,0.244,1.28,0.436,1.911,0.568
	c2.068,0.435,4.029,0.222,5.521-0.602c1.647-0.91,2.575-2.509,2.364-4.074c-0.227-1.687-1.634-2.963-3.863-3.503l-0.412,1.708
	c1.486,0.359,2.41,1.099,2.535,2.029c0.113,0.841-0.465,1.746-1.473,2.302c-1.732,0.958-4.762,0.962-8.544-1.373
	c-1.792-3.35-1.712-6.028-0.833-7.617c0.555-1.008,1.458-1.586,2.301-1.472c0.929,0.124,1.669,1.048,2.027,2.534l1.71-0.412
	c-0.541-2.229-1.817-3.638-3.503-3.864c-0.148-0.02-0.295-0.029-0.441-0.029c-1.42,0-2.809,0.902-3.634,2.394
	c-0.823,1.491-1.036,3.452-0.602,5.522c0.065,0.314,0.147,0.631,0.241,0.95c-1.848-1.518-3.719-2.723-5.545-3.668
	c0.338-0.051,0.68-0.146,1-0.285c0.341-0.146,0.659-0.338,0.938-0.563c0.28-0.225,0.521-0.484,0.71-0.742
	c0.188-0.26,0.33-0.517,0.419-0.716c0.046-0.098,0.075-0.19,0.099-0.245c0.01-0.028,0.018-0.054,0.021-0.07
	c0.007-0.017,0.01-0.025,0.01-0.025s-0.01-0.004-0.024-0.011c-0.015-0.007-0.038-0.02-0.067-0.03
	c-0.056-0.022-0.143-0.064-0.244-0.097c-0.209-0.07-0.492-0.145-0.811-0.183c-0.318-0.04-0.672-0.04-1.027,0.009
	c-0.355,0.051-0.714,0.152-1.052,0.299c-0.341,0.148-0.658,0.341-0.937,0.567C71,7.643,70.759,7.901,70.57,8.16
	c-0.108,0.148-0.197,0.292-0.273,0.43c-3.437-1.485-6.629-2.125-9.111-2.374c-3.656-0.364-6.404,0.017-7.48,0.213l-4.877-4.875
	l-0.004,0.006l-0.007-0.006L43.941,6.43c-1.077-0.196-3.826-0.577-7.481-0.213c-2.483,0.248-5.675,0.889-9.111,2.374
	c-0.077-0.138-0.165-0.282-0.274-0.43c-0.189-0.259-0.43-0.518-0.709-0.744c-0.279-0.226-0.598-0.419-0.938-0.567
	c-0.338-0.146-0.696-0.248-1.052-0.299c-0.355-0.049-0.708-0.049-1.026-0.009c-0.319,0.038-0.604,0.113-0.81,0.183
	c-0.103,0.033-0.189,0.075-0.246,0.097c-0.028,0.011-0.052,0.023-0.066,0.03c-0.016,0.007-0.025,0.011-0.025,0.011
	s0.002,0.008,0.009,0.025c0.005,0.016,0.011,0.042,0.023,0.07c0.022,0.055,0.052,0.147,0.098,0.245
	c0.089,0.199,0.229,0.456,0.418,0.716c0.191,0.258,0.431,0.517,0.71,0.742c0.279,0.226,0.599,0.418,0.938,0.563
	c0.322,0.139,0.662,0.234,1,0.285c-1.827,0.946-3.697,2.15-5.544,3.668c0.094-0.318,0.175-0.636,0.242-0.95
	c0.435-2.07,0.221-4.031-0.603-5.522c-0.824-1.492-2.213-2.394-3.633-2.394c-0.146,0-0.294,0.01-0.442,0.029
	c-1.686,0.226-2.963,1.635-3.502,3.864l1.708,0.412c0.36-1.485,1.099-2.41,2.029-2.534c0.843-0.114,1.745,0.464,2.301,1.472
	c0.877,1.589,0.958,4.267-0.834,7.617c-3.783,2.335-6.813,2.33-8.544,1.373c-1.007-0.556-1.586-1.46-1.472-2.302
	c0.125-0.93,1.049-1.67,2.535-2.029l-0.413-1.708c-2.229,0.54-3.637,1.816-3.864,3.503c-0.211,1.564,0.718,3.164,2.365,4.074
	c1.49,0.824,3.451,1.037,5.52,0.602c0.631-0.132,1.269-0.324,1.912-0.568c-0.136,0.172-0.266,0.343-0.413,0.519
	c-1.411,1.691-2.545,3.402-3.469,5.084c-0.05-0.178-0.112-0.354-0.188-0.526c-0.148-0.339-0.34-0.657-0.567-0.936
	c-0.226-0.28-0.485-0.52-0.742-0.709c-0.26-0.19-0.515-0.33-0.715-0.419c-0.097-0.046-0.188-0.077-0.244-0.099
	c-0.027-0.012-0.054-0.019-0.07-0.024c-0.017-0.005-0.024-0.008-0.024-0.008s-0.004,0.008-0.012,0.022
	c-0.006,0.016-0.02,0.039-0.03,0.068c-0.021,0.056-0.063,0.143-0.095,0.245c-0.071,0.207-0.144,0.491-0.183,0.809
	c-0.038,0.319-0.039,0.672,0.011,1.028c0.048,0.357,0.15,0.715,0.296,1.055c0.146,0.338,0.338,0.658,0.564,0.937
	c0.225,0.281,0.483,0.521,0.743,0.71c0.047,0.035,0.093,0.06,0.139,0.091c-1.599,3.575-2.278,6.906-2.534,9.476
	c-0.198,1.984-0.173,3.688-0.081,5.015c0.009,0.829,0.051,1.731,0.147,2.702c0.257,2.57,0.936,5.9,2.534,9.476
	c-0.046,0.032-0.092,0.056-0.139,0.091c-0.26,0.189-0.519,0.43-0.743,0.71c-0.226,0.279-0.418,0.599-0.564,0.938
	c-0.146,0.339-0.249,0.698-0.297,1.054c-0.049,0.356-0.048,0.709-0.01,1.028c0.039,0.317,0.112,0.602,0.183,0.808
	c0.032,0.103,0.073,0.189,0.095,0.246c0.01,0.028,0.023,0.052,0.03,0.066c0.007,0.016,0.011,0.023,0.011,0.023
	s0.008-0.003,0.025-0.008c0.016-0.004,0.043-0.012,0.07-0.023c0.056-0.022,0.146-0.053,0.243-0.099
	c0.2-0.089,0.456-0.229,0.716-0.421c0.257-0.188,0.516-0.429,0.742-0.709c0.227-0.279,0.419-0.598,0.567-0.936
	c0.075-0.171,0.138-0.348,0.188-0.527c0.922,1.684,2.057,3.394,3.468,5.085c0.146,0.175,0.276,0.347,0.412,0.52
	c-0.643-0.244-1.28-0.436-1.911-0.568c-2.068-0.435-4.029-0.222-5.52,0.603c-1.646,0.909-2.576,2.509-2.365,4.074
	c0.227,1.686,1.635,2.963,3.863,3.502l0.413-1.708C8.22,66.02,7.296,65.28,7.171,64.35c-0.114-0.842,0.465-1.746,1.472-2.303
	c1.732-0.956,4.763-0.962,8.544,1.373c1.792,3.351,1.712,6.028,0.834,7.617c-0.557,1.008-1.459,1.586-2.301,1.472
	c-0.93-0.124-1.669-1.048-2.029-2.534l-1.708,0.412c0.54,2.229,1.816,3.638,3.502,3.863c0.148,0.021,0.296,0.03,0.442,0.03
	c1.419,0,2.809-0.901,3.633-2.394c0.823-1.492,1.037-3.452,0.602-5.522c-0.065-0.315-0.148-0.632-0.242-0.95
	c1.847,1.518,3.718,2.723,5.544,3.668c-0.338,0.052-0.678,0.146-1,0.285c-0.34,0.146-0.659,0.338-0.938,0.563
	c-0.28,0.226-0.52,0.484-0.711,0.743c-0.188,0.26-0.329,0.517-0.417,0.716c-0.046,0.099-0.076,0.189-0.098,0.245
	c-0.012,0.028-0.018,0.055-0.023,0.07c-0.007,0.018-0.009,0.025-0.009,0.025s0.009,0.004,0.025,0.011
	c0.014,0.007,0.038,0.02,0.066,0.03c0.057,0.023,0.143,0.063,0.246,0.097c0.207,0.069,0.491,0.146,0.81,0.183
	c0.318,0.039,0.671,0.041,1.026-0.01c0.355-0.049,0.714-0.15,1.052-0.299c0.34-0.147,0.659-0.341,0.938-0.566
	c0.279-0.227,0.52-0.486,0.708-0.744c0.11-0.148,0.198-0.293,0.274-0.43c3.437,1.485,6.629,2.126,9.112,2.373
	c3.655,0.363,6.404-0.018,7.481-0.212l4.875,4.874l0.007-0.006l0.004,0.006l4.876-4.874c1.076,0.194,3.825,0.575,7.48,0.212
	c2.482-0.247,5.676-0.888,9.112-2.373c0.075,0.137,0.164,0.281,0.273,0.43c0.188,0.258,0.43,0.518,0.71,0.744
	c0.278,0.226,0.596,0.419,0.938,0.566c0.338,0.148,0.695,0.25,1.051,0.299c0.355,0.051,0.709,0.049,1.027,0.01
	c0.318-0.037,0.603-0.113,0.811-0.183c0.102-0.033,0.188-0.073,0.246-0.097c0.027-0.011,0.051-0.023,0.065-0.03
	s0.024-0.011,0.024-0.011s-0.002-0.008-0.01-0.025c-0.004-0.016-0.01-0.042-0.021-0.07c-0.022-0.056-0.053-0.146-0.098-0.245
	c-0.09-0.199-0.23-0.456-0.419-0.716c-0.19-0.259-0.43-0.518-0.711-0.743c-0.279-0.226-0.597-0.417-0.938-0.563
	c-0.321-0.139-0.663-0.233-1.001-0.285c1.827-0.945,3.697-2.15,5.546-3.668c-0.095,0.318-0.176,0.635-0.242,0.95
	c-0.435,2.07-0.222,4.03,0.603,5.522s2.213,2.394,3.633,2.394c0.146,0,0.293-0.01,0.441-0.03c1.686-0.226,2.963-1.635,3.503-3.863
	l-1.709-0.412c-0.359,1.486-1.1,2.41-2.028,2.534c-0.842,0.114-1.745-0.464-2.301-1.472c-0.879-1.589-0.959-4.267,0.834-7.617
	C84.374,61.085,87.402,61.091,89.134,62.047z"/>
<path fill-rule="evenodd" clip-rule="evenodd" fill="#FFFFFF" d="M93.88,75.35c-0.008-0.17-0.029-0.366-0.062-0.583
	c-0.03-0.218-0.081-0.448-0.146-0.689c-0.13-0.482-0.334-0.994-0.613-1.481s-0.633-0.949-1.043-1.355
	c-0.409-0.407-0.871-0.762-1.359-1.038c-0.488-0.28-1-0.483-1.48-0.614c-0.241-0.064-0.473-0.114-0.688-0.146
	c-0.217-0.033-0.413-0.053-0.582-0.063c-0.084-0.006-0.16-0.009-0.23-0.009c-0.067-0.001-0.127-0.001-0.177,0.002
	c-0.047,0-0.089,0.004-0.115,0.005l-0.039,0.002c0,0-0.001,0.014-0.003,0.039c-0.001,0.026-0.005,0.066-0.006,0.115
	c0,0.05-0.003,0.109,0,0.178c0,0.069,0.003,0.146,0.009,0.229c0.009,0.171,0.029,0.368,0.063,0.583
	c0.031,0.218,0.08,0.448,0.146,0.689c0.131,0.481,0.334,0.993,0.612,1.479c0.277,0.488,0.632,0.95,1.04,1.359
	c0.406,0.41,0.868,0.766,1.355,1.044c0.486,0.279,0.998,0.482,1.48,0.612c0.241,0.066,0.474,0.113,0.689,0.146
	c0.217,0.034,0.414,0.055,0.584,0.062c0.084,0.006,0.161,0.008,0.23,0.008c0.066,0.002,0.128,0,0.178-0.001
	c0.048,0,0.089-0.005,0.114-0.006c0.027-0.001,0.04-0.002,0.04-0.002s0.002-0.013,0.003-0.04s0.005-0.066,0.005-0.115
	c0.003-0.051,0.004-0.11,0.003-0.178C93.889,75.511,93.885,75.434,93.88,75.35z"/>
</svg>
